<?xml version="1.0" encoding="iso-8859-1"?>
<!-- Generator: Adobe Illustrator 19.0.0, SVG Export Plug-In . SVG Version: 6.00 Build 0)  -->
<svg version="1.1" id="Capa_1" xmlns="http://www.w3.org/2000/svg" xmlns:xlink="http://www.w3.org/1999/xlink" x="0px" y="0px"
	 viewBox="0 0 512 512" style="enable-background:new 0 0 512 512;" xml:space="preserve">
<g>
	<path style="fill:#3C9FD7;" d="M337.593,249.202H32.408c-12.324,0-22.408,9-22.408,20v160c0,11,10.084,20,22.408,20h28.991
		l13.461,24.23l13.461,24.23l13.462-24.23l13.461-24.23h222.35c12.322,0,22.406-9,22.406-20v-160
		C360,258.202,349.916,249.202,337.593,249.202z"/>
	<path style="fill:#FD4A4A;" d="M205.295,195.479h201.386l12.191,21.947l12.191,21.945l12.193-21.945l12.191-21.947h26.258
		c11.162,0,20.295-8.15,20.295-18.113V32.45c0-9.963-9.133-18.113-20.295-18.113h-276.41c-11.162,0-20.295,8.15-20.295,18.113
		v144.916C185,187.329,194.133,195.479,205.295,195.479z"/>
</g>
<path d="M481.707,4.337H205.295C188.59,4.337,175,16.948,175,32.45v144.916c0,15.502,13.59,28.113,30.295,28.113h195.501
	l21.525,38.749c1.764,3.175,5.11,5.144,8.742,5.144s6.978-1.969,8.741-5.144l21.528-38.749h20.373
	c16.705,0,30.295-12.611,30.295-28.113V32.45C512.001,16.948,498.412,4.337,481.707,4.337z M492.001,177.366
	c0,4.397-4.715,8.113-10.295,8.113h-26.258c-3.632,0-6.978,1.969-8.742,5.144l-15.642,28.158l-15.642-28.158
	c-1.764-3.175-5.11-5.144-8.742-5.144H205.295c-5.581,0-10.295-3.716-10.295-8.113V32.45c0-4.397,4.714-8.113,10.295-8.113h276.412
	c5.58,0,10.295,3.716,10.295,8.113L492.001,177.366L492.001,177.366z"/>
<path d="M337.593,239.202H32.408c-17.87,0-32.408,13.458-32.408,30v160c0,16.542,14.538,30,32.408,30h23.107l24.064,43.317
	c1.764,3.175,5.11,5.143,8.742,5.143s6.978-1.969,8.742-5.143l24.065-43.317h216.466c17.869,0,32.406-13.458,32.406-30v-160
	C370,252.66,355.462,239.202,337.593,239.202z M350,429.202c0,5.421-5.682,10-12.406,10h-222.35c-3.632,0-6.978,1.969-8.742,5.143
	l-18.181,32.726L70.14,444.345c-1.764-3.175-5.11-5.143-8.742-5.143h-28.99c-6.726,0-12.408-4.579-12.408-10v-160
	c0-5.421,5.682-10,12.408-10h305.185c6.725,0,12.406,4.579,12.406,10v160H350z"/>
<path d="M316.125,76.1h0.475c5.522,0,10-4.478,10-10s-4.478-10-10-10h-0.475c-5.522,0-10,4.478-10,10
	C306.125,71.623,310.602,76.1,316.125,76.1z"/>
<path d="M227.437,76.1h59.604c5.522,0,10-4.478,10-10s-4.478-10-10-10h-59.604c-5.523,0-10,4.478-10,10
	C217.437,71.623,221.914,76.1,227.437,76.1z"/>
<path d="M422.369,96.1H227.437c-5.523,0-10,4.478-10,10s4.477,10,10,10h194.932c5.522,0,10-4.478,10-10
	C432.369,100.578,427.891,96.1,422.369,96.1z"/>
<path d="M395.115,136.1H227.437c-5.523,0-10,4.478-10,10c0,5.523,4.477,10,10,10h167.678c5.522,0,10-4.477,10-10
	C405.115,140.578,400.637,136.1,395.115,136.1z"/>
<path d="M65.435,313.204h59.604c5.523,0,10-4.477,10-10c0-5.522-4.477-10-10-10H65.435c-5.523,0-10,4.478-10,10
	C55.435,308.726,59.912,313.204,65.435,313.204z"/>
<path d="M154.123,313.204h0.475c5.523,0,10-4.477,10-10c0-5.522-4.477-10-10-10h-0.475c-5.523,0-10,4.478-10,10
	S148.6,313.204,154.123,313.204z"/>
<path d="M304.564,333.204H65.435c-5.523,0-10,4.478-10,10c0,5.523,4.477,10,10,10h239.129c5.523,0,10-4.477,10-10
	C314.564,337.681,310.087,333.204,304.564,333.204z"/>
<path d="M271.13,373.204H65.435c-5.523,0-10,4.478-10,10c0,5.523,4.477,10,10,10H271.13c5.522,0,10-4.477,10-10
	C281.13,377.681,276.653,373.204,271.13,373.204z"/>
<g>
</g>
<g>
</g>
<g>
</g>
<g>
</g>
<g>
</g>
<g>
</g>
<g>
</g>
<g>
</g>
<g>
</g>
<g>
</g>
<g>
</g>
<g>
</g>
<g>
</g>
<g>
</g>
<g>
</g>
</svg>
