<?xml version="1.0" encoding="iso-8859-1"?>
<!-- Generator: Adobe Illustrator 19.0.0, SVG Export Plug-In . SVG Version: 6.00 Build 0)  -->
<svg version="1.1" id="Capa_1" xmlns="http://www.w3.org/2000/svg" xmlns:xlink="http://www.w3.org/1999/xlink" x="0px" y="0px"
	 viewBox="0 0 496 496" style="enable-background:new 0 0 496 496;" xml:space="preserve">
<path style="fill:#ECECEC;" d="M295.996,312l90.12,15.024c32.496,5.416,58.344,30.192,65.136,62.432L471.996,488h-448l20.744-98.552
	c6.784-32.232,32.64-57.016,65.136-62.432L199.996,312H295.996z"/>
<g>
	<polygon style="fill:#B6C1CE;" points="343.996,320 311.996,416 247.996,360 295.996,312 	"/>
	<path style="fill:#B6C1CE;" d="M431.996,488h40l-20.744-98.552c-6.784-32.232-32.64-57.016-65.128-62.432L295.996,312h-8
		l100.328,53.504c12.472,6.656,21.384,18.472,24.344,32.296L431.996,488z"/>
	<polygon style="fill:#B6C1CE;" points="151.996,320 183.996,416 247.996,360 199.996,312 	"/>
</g>
<polygon style="fill:#F9E0A6;" points="295.996,280 295.996,312 247.996,360 199.996,312 199.996,280 "/>
<polygon style="fill:#FB5968;" points="202.284,400 231.996,432 215.996,488 279.996,488 263.996,432 293.708,400 247.996,360 "/>
<circle style="fill:#92E0C0;" cx="247.996" cy="152" r="144"/>
<path style="fill:#48C397;" d="M247.996,8c-4.048,0-8.032,0.28-12,0.608c73.896,6.112,132,67.912,132,143.392
	s-58.104,137.28-132,143.392c3.968,0.328,7.952,0.608,12,0.608c79.528,0,144-64.472,144-144S327.524,8,247.996,8z"/>
<circle style="fill:#ECECEC;" cx="247.996" cy="232" r="16"/>
<path d="M459.076,387.808c-7.52-35.72-35.648-62.672-71.648-68.672l-83.432-13.912v-12.048c56.152-22.36,96-77.152,96-141.176
	c0-83.816-68.184-152-152-152s-152,68.184-152,152c0,64.024,39.848,118.816,96,141.176v12.048l-83.44,13.912
	c-36,6-64.12,32.952-71.648,68.672L14.14,496h467.72L459.076,387.808z M443.42,391.104L462.14,480h-46.984l-7.208-64.88
	l-15.896,1.768L399.06,480H286.028l-13.248-46.376l18.696-24.944l24.304,21.264l33.64-100.928l35.376,5.896
	C414.26,339.824,437.268,361.872,443.42,391.104z M236.292,359.608l-48.512,42.448l-25.232-75.704l34.704-5.784L236.292,359.608z
	 M298.74,320.568l34.704,5.784l-25.232,75.704L259.7,359.608L298.74,320.568z M247.636,370.952l0.36,0.36l0.36-0.36l31.048,27.168
	l-24.2,32.256L269.388,480h-42.792l14.184-49.624l-24.2-32.256L247.636,370.952z M111.996,152c0-74.992,61.008-136,136-136
	s136,61.008,136,136s-61.008,136-136,136S111.996,226.992,111.996,152z M247.996,304c13.864,0,27.232-2.024,40-5.52v10.208l-40,40
	l-40-40V298.48C220.764,301.976,234.132,304,247.996,304z M52.572,391.104c6.16-29.224,29.168-51.28,58.624-56.184l35.376-5.896
	l33.64,100.928l24.304-21.264l18.696,24.944L209.964,480H96.932l7.016-63.12l-15.896-1.768L80.836,480H33.852L52.572,391.104z"/>
<path d="M243.996,64c15.44,0,28,12.56,28,28v5.088c0,7.48-2.912,14.504-8.2,19.808l-23.8,23.792V184h16v-36.688l19.12-19.112
	c8.312-8.32,12.88-19.368,12.88-31.12V92c0-24.256-19.736-44-44-44s-44,19.744-44,44v4h16v-4C215.996,76.56,228.556,64,243.996,64z"
	/>
<path d="M271.996,232c0-13.232-10.768-24-24-24c-13.232,0-24,10.768-24,24s10.768,24,24,24C261.228,256,271.996,245.232,271.996,232
	z M239.996,232c0-4.416,3.592-8,8-8c4.408,0,8,3.584,8,8s-3.592,8-8,8S239.996,236.416,239.996,232z"/>
<g>
</g>
<g>
</g>
<g>
</g>
<g>
</g>
<g>
</g>
<g>
</g>
<g>
</g>
<g>
</g>
<g>
</g>
<g>
</g>
<g>
</g>
<g>
</g>
<g>
</g>
<g>
</g>
<g>
</g>
</svg>
