<?xml version="1.0" encoding="iso-8859-1"?>
<!-- Generator: Adobe Illustrator 19.0.0, SVG Export Plug-In . SVG Version: 6.00 Build 0)  -->
<svg version="1.1" id="Capa_1" xmlns="http://www.w3.org/2000/svg" xmlns:xlink="http://www.w3.org/1999/xlink" x="0px" y="0px"
	 viewBox="0 0 512 512" style="enable-background:new 0 0 512 512;" xml:space="preserve">
<path style="fill:#4DBBEB;" d="M493.52,211.306c-11.938-11.936-27.807-18.509-44.728-18.509l-233.002-0.003l28.465-28.464
	c11.958-11.941,18.542-27.823,18.542-44.722c0-34.849-28.354-63.2-63.218-63.2c-16.874,0-32.741,6.573-44.681,18.512L18.601,211.22
	c-8.841,8.806-14.827,19.891-17.315,32.056C0.433,247.441,0,251.722,0,256.001c0,16.929,6.607,32.832,18.584,44.761l136.288,136.287
	c11.939,11.958,27.822,18.543,44.723,18.543c34.849,0,63.2-28.353,63.202-63.201c0.002-16.879-6.57-32.752-18.512-44.696
	l-28.493-28.493h233.035c16.886,0,32.759-6.574,44.694-18.513C518.16,276.046,518.16,235.949,493.52,211.306z"/>
<path style="fill:#2488FF;" d="M18.584,300.76l136.288,136.287c11.939,11.958,27.822,18.543,44.723,18.543
	c34.849,0,63.2-28.353,63.202-63.201c0.002-16.879-6.57-32.752-18.512-44.696l-28.493-28.493h233.035
	c16.886,0,32.759-6.574,44.694-18.513C505.84,288.368,512,272.184,512,256.001H0C0,272.929,6.607,288.833,18.584,300.76z"/>
<g>
</g>
<g>
</g>
<g>
</g>
<g>
</g>
<g>
</g>
<g>
</g>
<g>
</g>
<g>
</g>
<g>
</g>
<g>
</g>
<g>
</g>
<g>
</g>
<g>
</g>
<g>
</g>
<g>
</g>
</svg>
